<svg xmlns="http://www.w3.org/2000/svg" xmlns:xlink="http://www.w3.org/1999/xlink" viewBox="0,0,256,256" width="50px" height="50px" fill-rule="nonzero"><g fill="#f22d01" fill-rule="nonzero" stroke="none" stroke-width="1" stroke-linecap="butt" stroke-linejoin="miter" stroke-miterlimit="10" stroke-dasharray="" stroke-dashoffset="0" font-family="none" font-weight="none" font-size="none" text-anchor="none" style="mix-blend-mode: normal"><g transform="scale(5.12,5.12)"><path d="M25.00195,1c-0.41447,-0.00095 -0.78657,0.25386 -0.93555,0.64063l-6.16797,15.99805l-16.95508,0.96289c-0.41205,0.02313 -0.76758,0.297 -0.8951,0.68951c-0.12752,0.39251 -0.00084,0.82304 0.31893,1.08393l13.19727,10.78711l-4.5293,16.57422c-0.10934,0.39996 0.03945,0.82591 0.37405,1.07079c0.3346,0.24488 0.7856,0.2579 1.13377,0.03273l14.45703,-9.34961l14.45703,9.34961c0.34817,0.22517 0.79917,0.21215 1.13377,-0.03273c0.3346,-0.24488 0.48339,-0.67083 0.37405,-1.07079l-4.5293,-16.57422l13.19727,-10.78711c0.31978,-0.2609 0.44645,-0.69143 0.31893,-1.08393c-0.12752,-0.39251 -0.48305,-0.66637 -0.8951,-0.68951l-16.95508,-0.96289l-6.16797,-15.99805c-0.14846,-0.38544 -0.5186,-0.63996 -0.93164,-0.64062zM25,4.78125l5.4668,14.17773c0.14142,0.36672 0.48453,0.6166 0.87695,0.63867l15.03516,0.85352l-11.71094,9.57422c-0.30645,0.2502 -0.43661,0.65752 -0.33203,1.03906l4.00977,14.67383l-12.80273,-8.27734c-0.33046,-0.21364 -0.75548,-0.21364 -1.08594,0l-12.80273,8.27734l4.00977,-14.67383c0.10458,-0.38154 -0.02558,-0.78886 -0.33203,-1.03906l-11.71094,-9.57422l15.03516,-0.85352c0.39242,-0.02207 0.73553,-0.27195 0.87695,-0.63867zM24,20v6h-6v2h6v6h2v-6h6v-2h-6v-6z"></path></g></g></svg>