<svg xmlns="http://www.w3.org/2000/svg" xmlns:xlink="http://www.w3.org/1999/xlink" viewBox="0,0,256,256" width="48px" height="48px" fill-rule="nonzero"><g fill="#898989" fill-rule="nonzero" stroke="none" stroke-width="1" stroke-linecap="butt" stroke-linejoin="miter" stroke-miterlimit="10" stroke-dasharray="" stroke-dashoffset="0" font-family="none" font-weight="none" font-size="none" text-anchor="none" style="mix-blend-mode: normal"><g transform="scale(5.33333,5.33333)"><path d="M16.91406,8c-0.25052,0.00799 -0.48891,0.10976 -0.66797,0.28516l-14.64063,14.28125c-0.79785,0.77637 -0.79785,2.09082 0,2.86719l14.64063,14.28125c0.2879,0.27992 0.7153,0.3605 1.08536,0.20464c0.37006,-0.15586 0.61102,-0.51794 0.61191,-0.91948v-15c0.0051,-0.36064 -0.18438,-0.69608 -0.49587,-0.87789c-0.3115,-0.18181 -0.69676,-0.18181 -1.00825,0c-0.3115,0.18181 -0.50097,0.51725 -0.49587,0.87789v12.62695l-12.94141,-12.625c-0.00065,-0.00065 -0.0013,-0.0013 -0.00195,-0.00195c0.00065,-0.00065 0.0013,-0.0013 0.00195,-0.00195l12.94141,-12.625v7.62695c0.00006,0.55226 0.44774,0.99994 1,1h26c1.11667,0 2,0.88333 2,2v4c0,1.11667 -0.88333,2 -2,2h-22c-0.36064,-0.0051 -0.69608,0.18438 -0.87789,0.49587c-0.18181,0.3115 -0.18181,0.69676 0,1.00825c0.18181,0.3115 0.51725,0.50097 0.87789,0.49587h22c2.19733,0 4,-1.80267 4,-4v-4c0,-2.19733 -1.80267,-4 -4,-4h-25v-9c0.00009,-0.27036 -0.10929,-0.52924 -0.3032,-0.71764c-0.19392,-0.1884 -0.45584,-0.29025 -0.72609,-0.28236z"></path></g></g></svg>