<svg xmlns="http://www.w3.org/2000/svg" xmlns:xlink="http://www.w3.org/1999/xlink" viewBox="0,0,256,256" width="48px" height="48px" fill-rule="nonzero"><g fill="#898989" fill-rule="nonzero" stroke="none" stroke-width="1" stroke-linecap="butt" stroke-linejoin="miter" stroke-miterlimit="10" stroke-dasharray="" stroke-dashoffset="0" font-family="none" font-weight="none" font-size="none" text-anchor="none" style="mix-blend-mode: normal"><g transform="scale(5.33333,5.33333)"><path d="M30.97266,8c-0.54155,0.01487 -0.97281,0.45824 -0.97266,1v15c-0.0051,0.36064 0.18438,0.69608 0.49587,0.87789c0.3115,0.18181 0.69676,0.18181 1.00825,0c0.3115,-0.18181 0.50097,-0.51725 0.49587,-0.87789v-12.62695l12.94141,12.625c0.00065,0.00065 0.0013,0.0013 0.00195,0.00195c-0.00065,0.00065 -0.0013,0.0013 -0.00195,0.00195l-12.94141,12.625v-7.62695c-0.00006,-0.55226 -0.44774,-0.99994 -1,-1h-26c-1.11667,0 -2,-0.88333 -2,-2v-4c0,-1.11667 0.88333,-2 2,-2h22c0.36064,0.0051 0.69608,-0.18438 0.87789,-0.49587c0.18181,-0.3115 0.18181,-0.69676 0,-1.00825c-0.18181,-0.3115 -0.51725,-0.50097 -0.87789,-0.49587h-22c-2.19733,0 -4,1.80267 -4,4v4c0,2.19733 1.80267,4 4,4h25v9c0.00012,0.40239 0.24139,0.76551 0.61229,0.92155c0.3709,0.15603 0.79919,0.07459 1.08693,-0.2067l14.63672,-14.2793c0.79982,-0.77612 0.80041,-2.09213 0.00195,-2.86914l-0.00195,-0.00195l-14.63672,-14.2793c-0.19357,-0.18954 -0.45575,-0.29243 -0.72656,-0.28516z"></path></g></g></svg>