<svg xmlns="http://www.w3.org/2000/svg" xmlns:xlink="http://www.w3.org/1999/xlink" viewBox="0,0,256,256" width="100px" height="100px" fill-rule="nonzero"><g fill="#ffffff" fill-rule="nonzero" stroke="none" stroke-width="1" stroke-linecap="butt" stroke-linejoin="miter" stroke-miterlimit="10" stroke-dasharray="" stroke-dashoffset="0" font-family="none" font-weight="none" font-size="none" text-anchor="none" style="mix-blend-mode: normal"><g transform="scale(16,16)"><path d="M8.01172,1.00391c-0.42187,0 -0.84766,0.17578 -1.14453,0.52734c-0.00391,0.00391 -0.01172,0.01172 -0.01562,0.01953l-3.35156,4.44922h-2c-0.27734,0 -0.5,0.22266 -0.5,0.5v2c0,0.27734 0.22266,0.5 0.5,0.5h0.58984l0.76172,3.79688c0.13672,0.69531 0.75781,1.20313 1.46875,1.20313h7.35938c0.71094,0 1.33203,-0.50781 1.47266,-1.20312l0.75781,-3.79687h0.58984c0.27734,0 0.5,-0.22266 0.5,-0.5v-2c0,-0.27734 -0.22266,-0.5 -0.5,-0.5h-2l-3.32812,-4.44531c-0.00391,-0.01172 -0.01172,-0.01953 -0.01562,-0.02344c-0.29687,-0.35156 -0.72266,-0.52734 -1.14453,-0.52734zM8.01172,1.99609c0.13672,0 0.27734,0.05859 0.37891,0.17969l2.85938,3.82422h-6.49609l2.87891,-3.82422c0.10156,-0.12109 0.24219,-0.17969 0.37891,-0.17969zM2,7h12v1h-0.5c-0.23828,0 -0.44531,0.16797 -0.48828,0.40234l-0.83984,4.19531c-0.05078,0.23828 -0.25,0.40234 -0.49219,0.40234h-7.35938c-0.24219,0 -0.44141,-0.16406 -0.49219,-0.40234l-0.83594,-4.19531c-0.04687,-0.23437 -0.25391,-0.40234 -0.49219,-0.40234h-0.5zM10.14453,8.14063l-2.64453,2.65234l-1.64844,-1.65234l-0.70312,0.70703l2.35156,2.35547l3.35547,-3.35937z"></path></g></g></svg>