<svg xmlns="http://www.w3.org/2000/svg" xmlns:xlink="http://www.w3.org/1999/xlink" viewBox="0,0,256,256" width="64px" height="64px" fill-rule="nonzero"><g fill="#ffffff" fill-rule="nonzero" stroke="none" stroke-width="1" stroke-linecap="butt" stroke-linejoin="miter" stroke-miterlimit="10" stroke-dasharray="" stroke-dashoffset="0" font-family="none" font-weight="none" font-size="none" text-anchor="none" style="mix-blend-mode: normal"><g transform="scale(2,2)"><path d="M124.5,121.4h-80.4c-1.7,0 -3,1.3 -3,3c0,1.7 1.3,3 3,3h80.4c1.7,0 3,-1.3 3,-3c0,-1.7 -1.3,-3 -3,-3zM1.1,124.4c0,1.7 1.3,3 3,3h20c1.7,0 3,-1.3 3,-3c0,-1.7 -1.3,-3 -3,-3h-20c-1.6,0 -3,1.4 -3,3zM42.7,102.4l60.8,-60.8v0l9.9,-9.9c3.4,-3.4 5.3,-7.9 5.3,-12.7c0,-4.8 -1.9,-9.3 -5.3,-12.7c-3.4,-3.4 -7.9,-5.3 -12.7,-5.3c-4.8,0 -9.3,1.9 -12.7,5.3l-9.8,9.8v0l-60.9,60.9c-0.5,0.5 -0.8,1.1 -0.8,1.7l-3.5,23.7l-2.7,2.7c-1.1,1.1 -1.3,3 -0.3,4.2c0.6,0.7 1.4,1 2.3,1c0.8,0 1.5,-0.3 2.1,-0.9l2.8,-2.8l23.8,-3.4c0.7,0 1.3,-0.3 1.7,-0.8zM92.2,10.5c2.3,-2.3 5.3,-3.5 8.5,-3.5c3.2,0 6.2,1.2 8.5,3.5c2.3,2.3 3.5,5.3 3.5,8.5c0,3.2 -1.2,6.2 -3.5,8.5l-6.6,6.6c-3.4,-7.5 -9.4,-13.6 -16.9,-17zM81,21.7c10.3,3.6 15.6,10.9 17.1,16.8l-55.4,55.4c-3,-7.8 -9.2,-13.9 -17,-17zM19.4,100.3l2.6,-18.3c7.5,2.4 13.4,8.2 15.7,15.7z"></path></g></g></svg>