<svg xmlns="http://www.w3.org/2000/svg" xmlns:xlink="http://www.w3.org/1999/xlink" viewBox="0,0,256,256" width="50px" height="50px" fill-rule="nonzero"><g fill="#ffffff" fill-rule="nonzero" stroke="none" stroke-width="1" stroke-linecap="butt" stroke-linejoin="miter" stroke-miterlimit="10" stroke-dasharray="" stroke-dashoffset="0" font-family="none" font-weight="none" font-size="none" text-anchor="none" style="mix-blend-mode: normal"><g transform="scale(5.12,5.12)"><path d="M25,13c-8.09766,0 -13.32422,1.21875 -16.6875,2.625c-3.36328,1.40625 -4.92578,3.09375 -5.375,3.53125c-0.58203,0.56641 -0.70703,1.24609 -0.8125,1.96875c-0.10547,0.72266 -0.14062,1.51172 -0.125,2.3125c0.03516,1.60156 0.21875,3.17578 0.34375,3.90625c0.29297,1.72266 1.59766,2.88281 3,2.625c0.83594,-0.15234 8.00781,-1.63672 9.09375,-1.90625c1.16406,-0.29297 1.73828,-1.3125 2.0625,-2.40625c0.18359,-0.61328 0.45313,-1.94141 0.71875,-3.25c0.19531,-0.95703 0.29297,-1.42969 0.375,-1.84375c0.60156,-0.14453 2.49609,-0.5625 7.40625,-0.5625c4.94141,0 6.83594,0.46094 7.40625,0.625c0.07813,0.39063 0.17578,0.88672 0.375,1.84375c0.26563,1.28125 0.53516,2.58203 0.71875,3.1875c0.32422,1.08984 0.89844,2.12891 2.09375,2.40625c0.47656,0.10938 2.49609,0.53125 4.5625,0.96875c2.06641,0.4375 4.01953,0.85156 4.53125,0.9375c1.38672,0.23047 2.67188,-0.86328 2.96875,-2.59375c0.125,-0.73047 0.30859,-2.30469 0.34375,-3.90625c0.01563,-0.80078 -0.01953,-1.62109 -0.125,-2.34375c-0.10547,-0.72266 -0.22656,-1.37109 -0.8125,-1.9375c-0.44922,-0.4375 -2.01172,-2.15625 -5.375,-3.5625c-3.36328,-1.40625 -8.59375,-2.625 -16.6875,-2.625zM25,15c7.89063,0 12.83984,1.21875 15.90625,2.5c3.06641,1.28125 4.17969,2.50781 4.78125,3.09375c-0.05859,-0.05859 0.14063,0.30469 0.21875,0.84375c0.07813,0.53906 0.10938,1.23438 0.09375,1.96875c-0.03125,1.46484 -0.21484,3.04297 -0.3125,3.625c-0.15625,0.89453 -0.80859,0.94922 -0.6875,0.96875c-0.20703,-0.03516 -2.34375,-0.46875 -4.40625,-0.90625c-2.0625,-0.4375 -4.19531,-0.88281 -4.5625,-0.96875c0.04297,0.00781 -0.41797,-0.36328 -0.625,-1.0625c-0.08594,-0.28906 -0.39062,-1.72656 -0.65625,-3c-0.26562,-1.27344 -0.5,-2.4375 -0.5,-2.4375l-0.125,-0.5625l-0.53125,-0.1875c0,0 -2.59766,-0.875 -8.59375,-0.875c-5.98047,0 -8.5625,0.75 -8.5625,0.75l-0.5625,0.15625l-0.125,0.59375c0,0 -0.23828,1.19922 -0.5,2.5c-0.26172,1.30078 -0.57031,2.78125 -0.65625,3.0625c-0.20703,0.69141 -0.67578,1.06641 -0.65625,1.0625c-0.64844,0.16016 -8.51172,1.79297 -8.96875,1.875c0.11328,-0.01953 -0.47266,-0.0625 -0.625,-0.96875c-0.10156,-0.58203 -0.3125,-2.16016 -0.34375,-3.625c-0.01562,-0.73047 0.01563,-1.46094 0.09375,-2c0.07813,-0.53906 0.27734,-0.87109 0.21875,-0.8125c0.60156,-0.58594 1.71484,-1.84375 4.78125,-3.125c3.06641,-1.28125 8.01172,-2.46875 15.90625,-2.46875zM24.90625,27.96875c-0.04297,0.00781 -0.08594,0.01953 -0.125,0.03125c-0.46484,0.10547 -0.79297,0.52344 -0.78125,1v13.5625l-3.28125,-3.28125c-0.24219,-0.25 -0.59766,-0.35547 -0.9375,-0.28125c-0.375,0.06641 -0.67578,0.33984 -0.78125,0.70313c-0.10547,0.36719 0.00391,0.75781 0.28125,1.01563l4.875,4.84375c0.01953,0.03125 0.03906,0.0625 0.0625,0.09375l0.0625,0.0625c0.04688,0.04688 0.10156,0.08984 0.15625,0.125l0.5625,0.5625l0.5625,-0.5625c0.08203,-0.0625 0.15625,-0.13672 0.21875,-0.21875l4.9375,-4.90625c0.39844,-0.39844 0.39844,-1.03906 0,-1.4375c-0.39844,-0.39844 -1.03906,-0.39844 -1.4375,0l-3.28125,3.28125v-13.5625c0.01172,-0.28906 -0.10547,-0.56641 -0.3125,-0.76172c-0.21094,-0.19922 -0.49609,-0.29687 -0.78125,-0.26953z"></path></g></g></svg>