<svg xmlns="http://www.w3.org/2000/svg" xmlns:xlink="http://www.w3.org/1999/xlink" viewBox="0,0,256,256" width="64px" height="64px" fill-rule="nonzero"><g fill="#898989" fill-rule="nonzero" stroke="none" stroke-width="1" stroke-linecap="butt" stroke-linejoin="miter" stroke-miterlimit="10" stroke-dasharray="" stroke-dashoffset="0" font-family="none" font-weight="none" font-size="none" text-anchor="none" style="mix-blend-mode: normal"><g transform="scale(4,4)"><path d="M5,9c-1.6561,0.00182 -2.99818,1.3439 -3,3v24c0.00182,1.6561 1.3439,2.99818 3,3h2v5c-0.00018,0.37877 0.21365,0.72514 0.55235,0.8947c0.3387,0.16956 0.74413,0.1332 1.04726,-0.09392l7.73437,-5.80078h5.66602v7c0.00182,1.6561 1.3439,2.99818 3,3h22.66602l7.73438,5.80078c0.30313,0.22712 0.70856,0.26347 1.04726,0.09392c0.3387,-0.16956 0.55253,-0.51592 0.55235,-0.8947v-5h2c1.6561,-0.00182 2.99818,-1.3439 3,-3v-24c-0.00182,-1.6561 -1.3439,-2.99818 -3,-3h-17v-7c-0.00182,-1.6561 -1.3439,-2.99818 -3,-3zM5,11h34c0.55208,0.0005 0.9995,0.44792 1,1v24c-0.0005,0.55208 -0.44792,0.9995 -1,1h-23c-0.21614,-0.0001 -0.4265,0.06979 -0.59961,0.19922l-6.40039,4.80078v-4c0,-0.55228 -0.44772,-1 -1,-1h-3c-0.55208,-0.0005 -0.9995,-0.44792 -1,-1v-24c0.0005,-0.55208 0.44792,-0.9995 1,-1zM17.44531,15.01367c-2.39617,0.03338 -4.53437,1.51209 -5.41128,3.74229c-0.87691,2.23019 -0.31849,4.76922 1.41323,6.42568l7.86133,7.52539c0.38667,0.37004 0.99614,0.37004 1.38281,0l7.85938,-7.52539c2.15607,-2.06622 2.431,-5.41657 0.64063,-7.80664c-1.02693,-1.36883 -2.59734,-2.22465 -4.30427,-2.34569c-1.70694,-0.12104 -3.3824,0.50461 -4.59221,1.71483l-0.29492,0.29492l-0.29492,-0.29492c-1.12768,-1.12884 -2.66432,-1.75308 -4.25977,-1.73047zM17.53125,17.01367c1.03538,0.00005 2.02824,0.41181 2.75977,1.14453l1.00195,1.00195c0.39051,0.39042 1.02356,0.39042 1.41406,0l1.00195,-1.00195c0.99207,-0.9978 2.44443,-1.38435 3.80124,-1.01171c1.35682,0.37264 2.40801,1.44678 2.75127,2.81132c0.34326,1.36454 -0.07455,2.80822 -1.09353,3.77852l-7.16797,6.86523l-7.16797,-6.86523c-1.11554,-1.06739 -1.49698,-2.69206 -0.97301,-4.14437c0.52396,-1.45231 1.85483,-2.45922 3.39489,-2.56852c0.0928,-0.0068 0.18554,-0.00977 0.27734,-0.00977zM17.5332,18.01367c-1.1861,-0.00093 -2.25347,0.71979 -2.69583,1.82032c-0.44236,1.10052 -0.17072,2.35947 0.68606,3.17968c0.39981,0.37707 1.02897,0.36092 1.4089,-0.03619c0.37993,-0.3971 0.36828,-1.02636 -0.02609,-1.40913c-0.32873,-0.3155 -0.37062,-0.82659 -0.09766,-1.19141c0.16877,-0.23092 0.4386,-0.3662 0.72461,-0.36328c0.55228,0 1,-0.44772 1,-1c0,-0.55228 -0.44772,-1 -1,-1zM42,21h17c0.55208,0.0005 0.9995,0.44792 1,1v24c-0.0005,0.55208 -0.44792,0.9995 -1,1h-3c-0.55228,0 -1,0.44772 -1,1v4l-6.40039,-4.80078c-0.17311,-0.12942 -0.38347,-0.19932 -0.59961,-0.19922h-23c-0.55208,-0.0005 -0.9995,-0.44792 -1,-1v-7h15c1.6561,-0.00182 2.99818,-1.3439 3,-3z"></path></g></g></svg>