<svg xmlns="http://www.w3.org/2000/svg" xmlns:xlink="http://www.w3.org/1999/xlink" viewBox="0,0,256,256" width="64px" height="64px" fill-rule="nonzero"><g fill="#898989" fill-rule="nonzero" stroke="none" stroke-width="1" stroke-linecap="butt" stroke-linejoin="miter" stroke-miterlimit="10" stroke-dasharray="" stroke-dashoffset="0" font-family="none" font-weight="none" font-size="none" text-anchor="none" style="mix-blend-mode: normal"><g transform="scale(4,4)"><path d="M57.9609,42.9629c-4.91722,-2.79414 -7.95656,-8.01236 -7.9609,-13.668v-2.85c-0.02162,-5.00195 -2.04073,-9.78795 -5.6084,-13.2939c-1.06165,-1.03442 -2.24517,-1.93587 -3.5245,-2.6845c0.08319,-0.48453 0.12763,-0.97491 0.1329,-1.4665c0,-4.97056 -4.02944,-9 -9,-9c-4.97056,0 -9,4.02944 -9,9c0.00465,0.46145 0.04386,0.92191 0.1173,1.3775c-5.61348,3.20307 -9.08967,9.15953 -9.1173,15.6225v3.2949c-0.00434,5.65564 -3.04368,10.87386 -7.9609,13.668c-2.35044,1.29873 -3.52376,4.02373 -2.85203,6.62374c0.67173,2.60001 3.01816,4.41566 5.70353,4.41336h12.16c0.51454,5.66323 5.26274,9.99958 10.9493,9.99958c5.68656,0 10.43476,-4.33635 10.9493,-9.99958h12.16c2.68538,0.0023 5.03181,-1.81335 5.70353,-4.41336c0.67173,-2.60001 -0.5016,-5.32501 -2.85203,-6.62374zM25.0117,9.4111c-0.0078,-0.1377 -0.0117,-0.2744 -0.0117,-0.4111c0,-3.86599 3.13401,-7 7,-7c3.86599,0 7,3.13401 7,7c0,0.1367 -0.0039,0.2734 -0.0117,0.4111c-2.21339,-0.92723 -4.58854,-1.40683 -6.9883,-1.4111c-2.39731,0.02799 -4.76796,0.50668 -6.9883,1.4111zM32,62c-4.5815,-0.00548 -8.42978,-3.44748 -8.9443,-8h17.8886c-0.51452,4.55252 -4.3628,7.99452 -8.9443,8zM55.1094,52h-46.2188c-2.14778,-0.00226 -3.88834,-1.74282 -3.8906,-3.8906c0.01407,-1.41687 0.78728,-2.71725 2.0254,-3.4063c5.54345,-3.14973 8.96985,-9.03241 8.9746,-15.4082v-3.2949c0.05146,-8.81239 7.18054,-15.94463 15.9929,-16c4.12517,0.02115 8.07601,1.66625 10.9971,4.5791c3.18579,3.12889 4.98947,7.40091 5.01,11.8662v2.85c0.00475,6.37579 3.43115,12.25847 8.9746,15.4082c1.23799,0.68898 2.01118,1.98917 2.0254,3.4059c-0.00226,2.14778 -1.74282,3.88834 -3.8906,3.8906z"></path></g></g></svg>