<svg xmlns="http://www.w3.org/2000/svg" xmlns:xlink="http://www.w3.org/1999/xlink" viewBox="0,0,256,256" width="50px" height="50px" fill-rule="nonzero"><g fill="#cc0003" fill-rule="nonzero" stroke="none" stroke-width="1" stroke-linecap="butt" stroke-linejoin="miter" stroke-miterlimit="10" stroke-dasharray="" stroke-dashoffset="0" font-family="none" font-weight="none" font-size="none" text-anchor="none" style="mix-blend-mode: normal"><g transform="scale(16,16)"><path d="M2.5,2c-0.82812,0 -1.5,0.67188 -1.5,1.5v9c0,0.82813 0.67188,1.5 1.5,1.5h4.10547c-0.16016,-0.31641 -0.29297,-0.65234 -0.39453,-1h-3.71094c-0.27734,0 -0.5,-0.22266 -0.5,-0.5v-0.92578l3.55469,-4.00781l1.16406,1.22266c0.16797,-0.29687 0.36328,-0.57812 0.58203,-0.83594l-1.76953,-1.86328l-3.53125,3.97656v-6.56641c0,-0.27734 0.22266,-0.5 0.5,-0.5h11c0.27734,0 0.5,0.22266 0.5,0.5v3.10547c0.35547,0.18359 0.69531,0.39844 1,0.65234v-3.75781c0,-0.82812 -0.67187,-1.5 -1.5,-1.5zM11,4c-0.55078,0 -1,0.44922 -1,1c0,0.55078 0.44922,1 1,1c0.55078,0 1,-0.44922 1,-1c0,-0.55078 -0.44922,-1 -1,-1zM11.5,7c-2.48047,0 -4.5,2.01953 -4.5,4.5c0,2.48047 2.01953,4.5 4.5,4.5c2.48047,0 4.5,-2.01953 4.5,-4.5c0,-2.48047 -2.01953,-4.5 -4.5,-4.5zM11.5,8c1.9375,0 3.5,1.5625 3.5,3.5c0,1.9375 -1.5625,3.5 -3.5,3.5c-1.9375,0 -3.5,-1.5625 -3.5,-3.5c0,-1.9375 1.5625,-3.5 3.5,-3.5zM11,9v2h-2v1h2v2h1v-2h2v-1h-2v-2z"></path></g></g></svg>