<svg xmlns="http://www.w3.org/2000/svg" xmlns:xlink="http://www.w3.org/1999/xlink" viewBox="0,0,256,256" width="32px" height="32px" fill-rule="nonzero"><g fill="#f22d01" fill-rule="nonzero" stroke="none" stroke-width="1" stroke-linecap="butt" stroke-linejoin="miter" stroke-miterlimit="10" stroke-dasharray="" stroke-dashoffset="0" font-family="none" font-weight="none" font-size="none" text-anchor="none" style="mix-blend-mode: normal"><g transform="scale(8,8)"><path d="M16,4c-6.61558,0 -12,5.38443 -12,12c0,6.61557 5.38442,12 12,12c6.61558,0 12,-5.38443 12,-12c0,-6.61557 -5.38442,-12 -12,-12zM16,6c5.5347,0 10,4.46531 10,10c0,5.53469 -4.4653,10 -10,10c-5.5347,0 -10,-4.46531 -10,-10c0,-5.53469 4.4653,-10 10,-10zM12.62305,11c-0.96284,0 -1.88727,0.38278 -2.56836,1.0625v0.00195h-0.00195c-1.39798,1.39936 -1.3676,3.69021 0,5.14453l5.95117,6.33203l5.95117,-6.33203c1.36578,-1.45381 1.39699,-3.74288 0,-5.14258c-0.68104,-0.6825 -1.60747,-1.06641 -2.57031,-1.06641c-0.96284,0 -1.88782,0.38392 -2.56836,1.06445l-0.00195,0.00195l-0.80469,0.8125l-0.81445,-0.81055l-0.00195,-0.00195c-0.68279,-0.68185 -1.60839,-1.06641 -2.57031,-1.06641zM12.62305,13c0.44316,0 0.83927,0.16349 1.1582,0.48242l2.23828,2.23047l2.21094,-2.23437c0.31347,-0.31347 0.71114,-0.47852 1.1543,-0.47852c0.44316,0 0.84138,0.16497 1.1543,0.47852c0.62779,0.62841 0.64082,1.63556 -0.04102,2.36133l-4.49414,4.7793l-4.49414,-4.78125c-0.6824,-0.72568 -0.66904,-1.73073 -0.04102,-2.35937c0.3147,-0.3134 0.71177,-0.47852 1.1543,-0.47852z"></path></g></g></svg>