<svg xmlns="http://www.w3.org/2000/svg" xmlns:xlink="http://www.w3.org/1999/xlink" viewBox="0,0,256,256" width="48px" height="48px" fill-rule="nonzero"><g fill="#898989" fill-rule="nonzero" stroke="none" stroke-width="1" stroke-linecap="butt" stroke-linejoin="miter" stroke-miterlimit="10" stroke-dasharray="" stroke-dashoffset="0" font-family="none" font-weight="none" font-size="none" text-anchor="none" style="mix-blend-mode: normal"><g transform="scale(5.33333,5.33333)"><path d="M24,3c-11.58997,0 -21,9.41003 -21,21c0,4.05949 1.15622,7.84498 3.15039,11.05664c0.18541,0.31002 0.5236,0.49596 0.88471,0.48642c0.36111,-0.00953 0.68901,-0.21306 0.85781,-0.53243c0.1688,-0.31937 0.15225,-0.70495 -0.04329,-1.00868c-1.80583,-2.90834 -2.84961,-6.32145 -2.84961,-10.00195c0,-10.51003 8.48997,-19 19,-19c10.51003,0 19,8.48997 19,19c0,3.68051 -1.04378,7.09361 -2.84961,10.00195c-0.19555,0.30373 -0.2121,0.68932 -0.04331,1.00869c0.1688,0.31938 0.4967,0.52291 0.85782,0.53244c0.36111,0.00953 0.6993,-0.17642 0.88471,-0.48644c1.99417,-3.21166 3.15039,-6.99715 3.15039,-11.05664c0,-11.58997 -9.41003,-21 -21,-21zM24,11c-3.80982,0 -6.80273,3.42775 -6.80273,7.5c0,4.07225 2.99292,7.5 6.80273,7.5c3.80982,0 6.80273,-3.42775 6.80273,-7.5c0,-4.07225 -2.99292,-7.5 -6.80273,-7.5zM24,13c2.5989,0 4.80273,2.39255 4.80273,5.5c0,3.10745 -2.20383,5.5 -4.80273,5.5c-2.5989,0 -4.80273,-2.39255 -4.80273,-5.5c0,-3.10745 2.20383,-5.5 4.80273,-5.5zM24,28c-6.46638,0 -12.21217,4.14163 -14.25391,10.27539c0,0.00065 0,0.0013 0,0.00195l-0.08984,0.26953c-0.12546,0.37702 -0.01583,0.79254 0.2793,1.05859c3.72865,3.36019 8.66669,5.39453 14.06445,5.39453c5.39776,0 10.3358,-2.03434 14.06445,-5.39453c0.29591,-0.2664 0.40561,-0.68295 0.2793,-1.06055l-0.0918,-0.26953v-0.00195c-2.04119,-6.13292 -7.78617,-10.27344 -14.25195,-10.27344zM24,30c5.47218,0 10.28379,3.43769 12.16602,8.54102c-3.30558,2.76697 -7.52099,4.45898 -12.16602,4.45898c-4.64502,0 -8.86043,-1.69202 -12.16602,-4.45898c1.88313,-5.10344 6.69384,-8.54102 12.16602,-8.54102z"></path></g></g></svg>