<svg xmlns="http://www.w3.org/2000/svg" xmlns:xlink="http://www.w3.org/1999/xlink" viewBox="0,0,256,256" width="48px" height="48px" fill-rule="nonzero"><g fill="#cc0003" fill-rule="nonzero" stroke="none" stroke-width="1" stroke-linecap="butt" stroke-linejoin="miter" stroke-miterlimit="10" stroke-dasharray="" stroke-dashoffset="0" font-family="none" font-weight="none" font-size="none" text-anchor="none" style="mix-blend-mode: normal"><g transform="scale(5.33333,5.33333)"><path d="M10,5c-2.74816,0 -5,2.25184 -5,5v28c0,2.74816 2.25184,5 5,5h28c2.74816,0 5,-2.25184 5,-5v-28c0,-2.74816 -2.25184,-5 -5,-5zM10,7h28c1.66384,0 3,1.33616 3,3v28c0,1.66384 -1.33616,3 -3,3h-28c-1.66384,0 -3,-1.33616 -3,-3v-28c0,-1.66384 1.33616,-3 3,-3zM23,10c-1.09306,0 -2,0.90694 -2,2v1.55273c-0.79796,0.23134 -1.55247,0.54611 -2.26367,0.94141l-1.09961,-1.10156c-0.77258,-0.77258 -2.05801,-0.77215 -2.83008,0.00195l-1.41211,1.41211c-0.77258,0.77258 -0.77405,2.05801 0,2.83008l1.09961,1.09766c-0.39538,0.71071 -0.708,1.46564 -0.93945,2.26367h-1.55469c-1.09306,0 -2,0.90694 -2,2v2c0,1.09306 0.90694,2 2,2h1.55273c0.23151,0.79855 0.54571,1.55398 0.94141,2.26563l-1.09961,1.09961c-0.77258,0.77258 -0.77405,2.05605 0,2.82813l1.41406,1.41406c0.77258,0.77258 2.05605,0.77215 2.82813,-0.00195l1.09961,-1.09766c0.71082,0.39523 1.46556,0.70818 2.26367,0.93945v1.55469c0,1.09306 0.90694,2 2,2h2c1.09306,0 2,-0.90694 2,-2v-1.55273c0.79796,-0.23134 1.55247,-0.54611 2.26367,-0.94141l1.09961,1.09961c0.77213,0.77213 2.05591,0.77268 2.82813,0l1.41406,-1.41406c0.77258,-0.77258 0.77405,-2.05605 0,-2.82812l-1.09961,-1.09961c0.39539,-0.711 0.71007,-1.46532 0.94141,-2.26367h1.55273c1.09306,0 2,-0.90694 2,-2v-2c0,-1.09306 -0.90694,-2 -2,-2h-1.55273c-0.23134,-0.79796 -0.54611,-1.55247 -0.94141,-2.26367l1.09961,-1.09961c0.77213,-0.77213 0.77268,-2.0559 0,-2.82812v-0.00195l-1.41406,-1.41406c-0.77258,-0.77258 -2.05605,-0.77215 -2.82812,0.00195l-1.09961,1.09766c-0.71082,-0.39523 -1.46556,-0.70818 -2.26367,-0.93945v-1.55273c0,-1.09306 -0.90694,-2 -2,-2zM23,12h2v2.19922c-0.00021,0.47567 0.33465,0.88567 0.80078,0.98047c1.14704,0.23264 2.21258,0.68599 3.1582,1.3125c0.39666,0.26272 0.9235,0.20963 1.25977,-0.12695l1.55859,-1.55859c0.00065,0 0.0013,0 0.00195,0l1.41211,1.41601l-1.55859,1.55859c-0.33555,0.33597 -0.3886,0.86157 -0.12695,1.25781c0.62676,0.94691 1.07988,2.01411 1.3125,3.16016c0.0948,0.46613 0.5048,0.80099 0.98047,0.80078h2.20117v2h-2.20117c-0.47567,-0.00021 -0.88567,0.33465 -0.98047,0.80078c-0.23264,1.14704 -0.68599,2.21258 -1.3125,3.1582c-0.26272,0.39666 -0.20963,0.9235 0.12695,1.25977l1.55859,1.55859l-1.41406,1.41406l-1.55859,-1.55859c-0.33597,-0.33555 -0.86157,-0.3886 -1.25781,-0.12695c-0.94691,0.62676 -2.01411,1.07988 -3.16016,1.3125c-0.46613,0.0948 -0.80099,0.5048 -0.80078,0.98047v2.20117h-2v-2.20117c0.00021,-0.47567 -0.33465,-0.88567 -0.80078,-0.98047c-1.14704,-0.23264 -2.21258,-0.68599 -3.1582,-1.3125c-0.39666,-0.26272 -0.9235,-0.20963 -1.25977,0.12695l-1.55859,1.55859l-1.41406,-1.41406l1.55859,-1.55859c0.33658,-0.33627 0.38968,-0.8631 0.12695,-1.25977c-0.62676,-0.94691 -1.07988,-2.01216 -1.3125,-3.1582c-0.09399,-0.4669 -0.5042,-0.80275 -0.98047,-0.80273h-2.20117v-2h2.20117c0.47567,0.00021 0.88567,-0.33465 0.98047,-0.80078c0.23264,-1.14704 0.68599,-2.21258 1.3125,-3.1582c0.26272,-0.39666 0.20963,-0.9235 -0.12695,-1.25977l-1.55859,-1.55859l1.41406,-1.41211l1.55859,1.55859c0.33597,0.33555 0.86157,0.3886 1.25781,0.12695c0.94691,-0.62676 2.01411,-1.07988 3.16016,-1.3125c0.46613,-0.0948 0.80099,-0.5048 0.80078,-0.98047zM24,18c-1.91667,0 -3.48144,0.75476 -4.49805,1.89844c-1.01661,1.14368 -1.50195,2.62934 -1.50195,4.10156c0,1.47222 0.48535,2.95788 1.50195,4.10156c1.01661,1.14368 2.58138,1.89844 4.49805,1.89844c3.30186,0 6,-2.69814 6,-6c0,-3.30186 -2.69814,-6 -6,-6zM24,20c2.22099,0 4,1.77902 4,4c0,2.22098 -1.77901,4 -4,4c-1.41667,0 -2.35189,-0.49524 -3.00195,-1.22656c-0.65006,-0.73132 -0.99805,-1.74566 -0.99805,-2.77344c0,-1.02778 0.34799,-2.04212 0.99805,-2.77344c0.65006,-0.73132 1.58529,-1.22656 3.00195,-1.22656z"></path></g></g></svg>