<svg xmlns="http://www.w3.org/2000/svg" xmlns:xlink="http://www.w3.org/1999/xlink" viewBox="0,0,256,256" width="50px" height="50px" fill-rule="nonzero"><g fill="#ffffff" fill-rule="nonzero" stroke="none" stroke-width="1" stroke-linecap="butt" stroke-linejoin="miter" stroke-miterlimit="10" stroke-dasharray="" stroke-dashoffset="0" font-family="none" font-weight="none" font-size="none" text-anchor="none" style="mix-blend-mode: normal"><g transform="scale(5.12,5.12)"><path d="M26.1875,2.96875c-0.3125,0.00391 -0.63281,0.05859 -0.9375,0.15625c-0.59375,0.19141 -1.16406,0.55078 -1.65625,1.0625c-0.01172,0.01172 -0.01953,0.01953 -0.03125,0.03125l-11.875,11.78125h-6.6875c-1.64453,0 -3,1.35547 -3,3v12c0,1.64453 1.35547,3 3,3h6.8125l11.6875,11.71875c1.12891,1.12891 2.57031,1.58984 3.75,1.03125c1.17969,-0.55859 1.75,-1.89453 1.75,-3.4375v-37c0,-1.49219 -0.73437,-2.76172 -1.90625,-3.1875c-0.29297,-0.10547 -0.59375,-0.16016 -0.90625,-0.15625zM26.15625,4.96875c0.09375,0 0.17969,0.00781 0.25,0.03125c0.27734,0.10156 0.59375,0.40234 0.59375,1.3125v37c0,1.05469 -0.37891,1.50781 -0.625,1.625c-0.24609,0.11719 -0.69922,0.11328 -1.46875,-0.65625l-12.59375,-12.59375c0.01563,0.01563 -0.3125,-0.58594 -0.3125,-1v-11.5c0,-0.13281 0.04688,-0.40234 0.125,-0.625c0.07813,-0.22266 0.23438,-0.39062 0.1875,-0.34375l12.6875,-12.59375c0.01172,-0.01172 0.01953,-0.01953 0.03125,-0.03125c0.45313,-0.48047 0.83984,-0.62109 1.125,-0.625zM31,8v2c8.25391,0 15,6.74609 15,15c0,8.25391 -6.74609,15 -15,15v2c9.34375,0 17,-7.65625 17,-17c0,-9.34375 -7.65625,-17 -17,-17zM31,14v2c4.95313,0 9,4.04688 9,9c0,4.95313 -4.04687,9 -9,9v2c6.04688,0 11,-4.95312 11,-11c0,-6.04687 -4.95312,-11 -11,-11zM5,18h5.21875c-0.12891,0.375 -0.21875,0.75781 -0.21875,1.1875v11.5c0,0.48047 0.07422,0.91797 0.21875,1.3125h-5.21875c-0.55469,0 -1,-0.44531 -1,-1v-12c0,-0.55469 0.44531,-1 1,-1zM31,20v2c1.65625,0 3,1.34375 3,3c0,1.65625 -1.34375,3 -3,3v2c2.74609,0 5,-2.25391 5,-5c0,-2.74609 -2.25391,-5 -5,-5z"></path></g></g></svg>